# AST/ASF file generated using VICON BodyLanguage
# -----------------------------------------------
:version 1.10
:name VICON
:units
  mass 1.0
  length 0.45
  angle deg
:documentation
   .ast/.asf automatically generated from VICON data using
   VICON BodyBuilder and BodyLanguage model FoxedUp or BRILLIANT.MOD
:root
   order TX TY TZ RX RY RZ
   axis XYZ
   position 0 0 0  
   orientation 0 0 0 
:bonedata
  begin
     id 1 
     name lhipjoint
     direction 0.700308 -0.549349 0.455834 
     length 2.59063 
     axis 0 0 0  XYZ
  end
  begin
     id 2 
     name lfemur
     direction 0.34202 -0.939693 0  
     length 6.31066  
     axis 0 0 20  XYZ
    dof rx ry rz
    limits (-160.0 20.0)
           (-70.0 70.0)
           (-60.0 70.0)
  end
  begin
     id 3 
     name ltibia
     direction 0.34202 -0.939693 0   
     length 7.36093   
     axis 0 0 20   XYZ
    dof rx
    limits (-10.0 170.0)
  end
  begin
     id 4 
     name lfoot
     direction 0.0905332 -0.248738 0.96433   
     length 2.0233   
     axis -90 7.62852e-016 20   XYZ
    dof rx rz
    limits (-45.0 90.0)
           (-70.0 20.0)
  end
  begin
     id 5 
     name ltoes
     direction 1.53573e-011 -4.21855e-011 1   
     length 1.01524   
     axis -90 7.62852e-016 20   XYZ
    dof rx
    limits (-90.0 20.0)
  end
  begin
     id 6 
     name rhipjoint
     direction -0.61416 -0.607328 0.503944   
     length 2.34332  
     axis 0 0 0  XYZ 
  end
  begin
     id 7 
     name rfemur
     direction -0.34202 -0.939693 0   
     length 6.58548   
     axis 0 0 -20   XYZ
    dof rx ry rz
    limits (-160.0 20.0)
           (-70.0 70.0)
           (-70.0 60.0)
  end
  begin
     id 8 
     name rtibia
     direction -0.34202 -0.939693 0   
     length 7.20707   
     axis 0 0 -20   XYZ
    dof rx
    limits (-10.0 170.0)
 end
 begin
     id 9 
     name rfoot
     direction -0.136772 -0.375778 0.916561   
     length 1.92184  
     axis -90 -7.62852e-016 -20   XYZ
    dof rx rz
    limits (-45.0 90.0)
           (-20.0 70.0)
  end
  begin
     id 10 
     name rtoes
     direction -1.53535e-011 -4.21828e-011 1   
     length 0.951089   
     axis -90 -7.62852e-016 -20   XYZ
    dof rx
    limits (-90.0 20.0)
  end
  begin
     id 11 
     name lowerback
     direction -0.0444974 0.988086 -0.147332   
     length 1.9609   
     axis 0 0 0   XYZ
    dof rx ry rz
    limits (-20.0 45.0)
           (-30.0 30.0)
           (-30.0 30.0)
  end
  begin
     id 12 
     name upperback
     direction 0.00613146 0.999513 0.0306081   
     length 1.94944   
     axis 0 0 0   XYZ
    dof rx ry rz
    limits (-20.0 45.0)
           (-30.0 30.0)
           (-30.0 30.0)
  end
  begin
     id 13 
     name thorax
     direction 0.0254621 0.994518 0.101418   
     length 2.0119   
     axis 0 0 0   XYZ
    dof rx ry rz
    limits (-20.0 45.0)
           (-30.0 30.0)
           (-30.0 30.0)
  end
  begin
     id 14 
     name lowerneck
     direction 0.0168698 0.977854 0.208608   
     length 1.6375   
     axis 0 0 0   XYZ
    dof rx ry rz
    limits (-20.0 45.0)
           (-30.0 30.0)
           (-30.0 30.0)
  end
  begin
     id 15 
     name upperneck
     direction -0.0283988 0.989338 -0.142843   
     length 1.6851   
     axis 0 0 0   XYZ
    dof rx ry rz
    limits (-20.0 45.0)
           (-30.0 30.0)
           (-30.0 30.0)
  end
  begin
     id 16
     name head
     direction -0.0129422 0.99741 -0.0707489  
     length 1.69029  
     axis 0 0 0   XYZ
    dof rx ry rz
    limits (-20.0 45.0)
           (-30.0 30.0)
           (-30.0 30.0)
  end
  begin
     id 17 
     name lclavicle
     direction 0.820295 0.564628 -0.0911715  
     length 3.16484  
     axis 0 0 0   XYZ
    dof ry rz
    limits (-20.0 10.0)
           (0.0 20.0)
  end
  begin
     id 18 
     name lhumerus
     direction 1 -4.48969e-011 1.00186e-027   
     length 5.17853   
     axis 180 -30 -90   XYZ
    dof rx ry rz
    limits (-60.0 90.0)
           (-90.0 90.0)
           (-90.0 90.0)
  end
  begin
     id 19
     name lradius
     direction 1 -4.48966e-011 -1.52922e-027   
     length 3.40399   
     axis 180 -30 -90   XYZ
    dof rx
    limits (-10.0 170.0)
  end
  begin
     id 20
     name lwrist
     direction 1 -4.48981e-011 -3.80893e-027   
     length 1.70199   
     axis 1.1049e-015 90 90   XYZ
    dof ry
    limits (-180.0 0.0)
 end
  begin
     id 21 
     name lhand
     direction 1 -4.48957e-011 -7.61786e-027   
     length 0.708964   
     axis 4.86085e-015 90 90   XYZ
    dof rx rz
    limits (-90.0 90.0)
           (-45.0 45.0)
  end
  begin
     id 22 
     name lfingers
     direction 1 -4.48929e-011 -1.52357e-026   
     length 0.571585   
     axis 9.7217e-015 90 90   XYZ
    dof rx
    limits (0.0 90.0)
  end
  begin
     id 23
     name lthumb
     direction 0.707107 -6.34905e-011 0.707107   
     length 0.820685   
     axis -90 45 2.85299e-015   XYZ
    dof rx rz
    limits (-45.0 45.0)
           (-45.0 45.0)
  end
  begin
     id 24 
     name rclavicle
     direction -0.858602 0.463947 -0.218075   
     length 3.35137  
     axis 0 0 0   XYZ 
    dof ry rz
    limits (-10.0 20.0)
           (-20.0 0.0)
  end
  begin
     id 25 
     name rhumerus
     direction -1 -4.48969e-011 -1.98511e-027  
     length 5.42351   
     axis 180 30 90   XYZ
    dof rx ry rz
    limits (-90.0 60.0)
           (-90.0 90.0)
           (-90.0 90.0)
  end
  begin
     id 26 
     name rradius
     direction -1 -4.48961e-011 -2.82624e-027   
     length 3.42066   
     axis 180 30 90   XYZ
    dof rx
    limits (-10.0 170.0)
  end
  begin
     id 27 
     name rwrist
     direction -1 -4.48966e-011 -3.80893e-027   
     length 1.71033   
     axis 1.1049e-015 -90 -90   XYZ
    dof ry
    limits (-180.0 0.0)
  end
  begin
     id 28
     name rhand
     direction -1 -4.48964e-011 -7.61786e-027   
     length 0.743608   
     axis 4.86085e-015 -90 -90   XYZ
    dof rx rz
    limits (-90.0 90.0)
           (-45.0 45.0)
  end
  begin
     id 29
     name rfingers
     direction -1 -4.48961e-011 -1.52357e-026   
     length 0.599516   
     axis 9.7217e-015 -90 -90   XYZ
    dof rx
    limits (0.0 90.0)
  end
  begin
     id 30
     name rthumb
     direction -0.707107 -6.34913e-011 0.707107   
     length 0.860789   
     axis -90 -45 -2.85299e-015   XYZ
    dof rx rz
    limits (-45.0 45.0)
           (-45.0 45.0)
  end
:hierarchy
  begin
    root lhipjoint rhipjoint lowerback
    lhipjoint lfemur
    lfemur ltibia
    ltibia lfoot
    lfoot ltoes
    rhipjoint rfemur
    rfemur rtibia
    rtibia rfoot
    rfoot rtoes
    lowerback upperback
    upperback thorax
    thorax lowerneck lclavicle rclavicle
    lowerneck upperneck
    upperneck head
    lclavicle lhumerus
    lhumerus lradius
    lradius lwrist
    lwrist lhand lthumb
    lhand lfingers
    rclavicle rhumerus
    rhumerus rradius
    rradius rwrist
    rwrist rhand rthumb
    rhand rfingers
  end

#!OML:ASF E:\mmandel\Project 1\Capture day 1\Session 2\Subject.ASF
:FULLY-SPECIFIED
:DEGREES
345
root -3.49339 1.7708 3.30775 139.658 76.0867 -120.039
lowerback 13.1539 0.165362 -2.21512
upperback 7.80472 0.417299 2.46576
thorax 0.805131 0.290091 3.77513
lowerneck -10.7028 -4.97699 -5.04034
upperneck 45.1482 -3.91524 -1.251
head 19.244 -1.48519 -0.0385396
rclavicle 4.92986e-014 -1.59028e-014
rhumerus 3.62869 56.2165 -89.1832
rradius 45.2549
rwrist -17.6348
rhand 4.76681 31.1682
rfingers 7.12502
rthumb 30.1475 3.60779
lclavicle 4.92986e-014 -1.59028e-014
lhumerus 19.5679 1.08099 10.5884
lradius 18.6942
lwrist -15.2791
lhand -7.84061 -14.519
lfingers 7.12502
lthumb 18.0622 14.6623
rfemur -34.1857 -23.9528 26.8738
rtibia 101.836
rfoot 3.82412 -11.6646
rtoes 5.65535
lfemur -11.2214 10.5482 17.5731
ltibia 36.0807
lfoot 6.04391 26.0546
ltoes 37.9824
346
root -3.48381 1.7684 3.32555 139.232 76.317 -120.633
lowerback 13.0333 0.240969 -2.14294
upperback 7.75035 0.520921 2.3424
thorax 0.803509 0.344904 3.59155
lowerneck -10.5781 -5.03041 -4.82323
upperneck 45.1595 -4.11515 -1.18819
head 19.2096 -1.51495 -0.0795258
rclavicle 3.49861e-014 -1.31993e-013
rhumerus 3.25966 55.3319 -89.2783
rradius 44.6346
rwrist -17.4023
rhand 4.54413 31.3065
rfingers 7.12502
rthumb 29.9351 3.70747
lclavicle 3.49861e-014 -1.31993e-013
lhumerus 19.8983 0.364944 10.4535
lradius 18.9256
lwrist -15.0093
lhand -8.09369 -14.4939
lfingers 7.12502
lthumb 17.8187 14.7098
rfemur -34.3559 -24.2045 26.8632
rtibia 101.892
rfoot 3.34262 -11.8354
rtoes 6.35916
lfemur -11.0068 10.353 17.6264
ltibia 35.7398
lfoot 5.95135 25.8129
ltoes 38.3031
347
root -3.48617 1.76348 3.34825 138.971 76.4946 -121.215
lowerback 12.4798 0.279948 -2.28969
upperback 8.70836 0.620255 2.31075
thorax 2.1096 0.388946 3.64495
lowerneck -13.6643 -5.12227 -4.312
upperneck 45.4799 -4.36885 -1.31799
head 20.3062 -1.59974 -0.394983
rclavicle 1.90833e-014 -1.62606e-013
rhumerus 6.98627 54.7537 -85.9224
rradius 43.9539
rwrist -17.3261
rhand 4.34474 31.2181
rfingers 7.12502
rthumb 29.7448 3.58491
lclavicle 1.90833e-014 -1.62606e-013
lhumerus 20.5682 2.43814 10.9819
lradius 19.0603
lwrist -15.6331
lhand -8.24641 -14.7438
lfingers 7.12502
lthumb 17.6717 14.4732
rfemur -34.7168 -24.4729 26.9291
rtibia 101.927
rfoot 2.98334 -11.7613
rtoes 5.3378
lfemur -11.0008 9.93248 17.5608
ltibia 35.3716
lfoot 5.97607 25.7821
ltoes 38.0946
348
root -3.49076 1.75671 3.37024 138.448 76.6767 -122.078
lowerback 12.4974 0.0876531 -2.95769
upperback 7.68923 0.218761 2.66248
thorax 1.05722 0.143614 4.42749
lowerneck -11.0091 -4.88649 -5.20632
upperneck 45.6294 -3.59945 -1.36213
head 19.6591 -1.37701 -0.0085468
rclavicle -3.65764e-014 -6.59965e-014
rhumerus 3.55178 55.3479 -88.1833
rradius 43.5102
rwrist -16.7339
rhand 4.4626 30.8856
rfingers 7.12502
rthumb 29.8573 3.27262
lclavicle -3.65764e-014 -6.59965e-014
lhumerus 18.8099 0.313502 11.1275
lradius 19.55
lwrist -15.1746
lhand -8.17668 -14.9543
lfingers 7.12502
lthumb 17.7388 14.2566
rfemur -35.1249 -24.7623 26.9633
rtibia 102.012
rfoot 2.89885 -11.7132
rtoes 4.3044
lfemur -10.9769 9.57831 17.4393
ltibia 34.9911
lfoot 6.85064 25.3659
ltoes 35.9339
349
root -3.49075 1.74994 3.38497 137.517 76.8198 -123.363
lowerback 11.9973 0.327908 -2.66464
upperback 8.39304 0.621556 2.27346
thorax 2.03354 0.361278 3.81668
lowerneck -13.0632 -5.10936 -4.34547
upperneck 45.5554 -4.34652 -1.28181
head 20.1818 -1.57083 -0.34263
rclavicle -7.95139e-015 -4.65156e-014
rhumerus 6.10458 53.609 -86.0484
rradius 42.724
rwrist -16.2686
rhand 4.55538 30.8938
rfingers 7.12502
rthumb 29.9458 3.29673
lclavicle -7.95139e-015 -4.65156e-014
lhumerus 20.6692 2.40463 11.8547
lradius 19.4354
lwrist -16.1599
lhand -8.0138 -15.0315
lfingers 7.12502
lthumb 17.8956 14.1652
rfemur -35.5545 -25.0257 26.8468
rtibia 102.161
rfoot 2.63698 -11.729
rtoes 4.69418
lfemur -10.8918 9.32998 17.2039
ltibia 34.6171
lfoot 7.8749 24.636
ltoes 33.6425
